<svg width="14" height="14" viewBox="0 0 14 14" fill="none" xmlns="http://www.w3.org/2000/svg">
<g clip-path="url(#clip0_1920_39727)">
<path d="M11.375 1.75H9.625V0.875H8.75V1.75H5.25V0.875H4.375V1.75H2.625C2.14375 1.75 1.75 2.14375 1.75 2.625V11.375C1.75 11.8562 2.14375 12.25 2.625 12.25H11.375C11.8562 12.25 12.25 11.8562 12.25 11.375V2.625C12.25 2.14375 11.8562 1.75 11.375 1.75ZM11.375 11.375H2.625V5.25H11.375V11.375ZM11.375 4.375H2.625V2.625H4.375V3.5H5.25V2.625H8.75V3.5H9.625V2.625H11.375V4.375Z" fill="#161616"/>
</g>
<defs>
<clipPath id="clip0_1920_39727">
<rect width="14" height="14" fill="white"/>
</clipPath>
</defs>
</svg>
