<svg width="14" height="14" viewBox="0 0 14 14" fill="none" xmlns="http://www.w3.org/2000/svg">
<path d="M7.76125 13.125L7 12.6875L8.75 9.625H11.375C11.6071 9.625 11.8296 9.53281 11.9937 9.36872C12.1578 9.20462 12.25 8.98206 12.25 8.75V3.5C12.25 3.26794 12.1578 3.04538 11.9937 2.88128C11.8296 2.71719 11.6071 2.625 11.375 2.625H2.625C2.39294 2.625 2.17038 2.71719 2.00628 2.88128C1.84219 3.04538 1.75 3.26794 1.75 3.5V8.75C1.75 8.98206 1.84219 9.20462 2.00628 9.36872C2.17038 9.53281 2.39294 9.625 2.625 9.625H6.5625V10.5H2.625C2.16087 10.5 1.71575 10.3156 1.38756 9.98744C1.05937 9.65925 0.875 9.21413 0.875 8.75V3.5C0.875 3.03587 1.05937 2.59075 1.38756 2.26256C1.71575 1.93437 2.16087 1.75 2.625 1.75H11.375C11.8391 1.75 12.2842 1.93437 12.6124 2.26256C12.9406 2.59075 13.125 3.03587 13.125 3.5V8.75C13.125 9.21413 12.9406 9.65925 12.6124 9.98744C12.2842 10.3156 11.8391 10.5 11.375 10.5H9.2575L7.76125 13.125Z" fill="#161616"/>
<path d="M10.5 4.375H3.5V5.25H10.5V4.375Z" fill="#161616"/>
<path d="M7.875 7H3.5V7.875H7.875V7Z" fill="#161616"/>
</svg>
