<svg width="14" height="14" viewBox="0 0 14 14" fill="none" xmlns="http://www.w3.org/2000/svg">
<g clip-path="url(#clip0_1952_44097)">
<path d="M5.5625 7.4375C6.11478 7.4375 6.5625 7.88522 6.5625 8.4375V11.6875C6.5625 12.2052 6.16917 12.6313 5.66504 12.6826L5.5625 12.6875H2.3125L2.20996 12.6826C1.73953 12.6347 1.36528 12.2605 1.31738 11.79L1.3125 11.6875V8.4375C1.3125 7.88522 1.76022 7.4375 2.3125 7.4375H5.5625ZM11.6875 7.4375C12.2398 7.4375 12.6875 7.88522 12.6875 8.4375V11.6875C12.6875 12.2052 12.2942 12.6313 11.79 12.6826L11.6875 12.6875H8.4375L8.33496 12.6826C7.86453 12.6347 7.49028 12.2605 7.44238 11.79L7.4375 11.6875V8.4375C7.4375 7.88522 7.88522 7.4375 8.4375 7.4375H11.6875ZM8.4375 11.6875H11.6875V8.4375H8.4375V11.6875ZM2.3125 11.6875H5.5625V8.4375H2.3125V11.6875ZM5.5625 1.3125C6.11478 1.3125 6.5625 1.76022 6.5625 2.3125V5.5625C6.5625 6.08018 6.16917 6.50629 5.66504 6.55762L5.5625 6.5625H2.3125L2.20996 6.55762C1.73953 6.50972 1.36528 6.13547 1.31738 5.66504L1.3125 5.5625V2.3125C1.3125 1.76022 1.76022 1.3125 2.3125 1.3125H5.5625ZM11.6875 1.3125C12.2398 1.3125 12.6875 1.76022 12.6875 2.3125V5.5625C12.6875 6.08018 12.2942 6.50629 11.79 6.55762L11.6875 6.5625H8.4375L8.33496 6.55762C7.86453 6.50972 7.49028 6.13547 7.44238 5.66504L7.4375 5.5625V2.3125C7.4375 1.76022 7.88522 1.3125 8.4375 1.3125H11.6875ZM2.3125 5.5625H5.5625V2.3125H2.3125V5.5625ZM8.4375 5.5625H11.6875V2.3125H8.4375V5.5625Z" fill="#161616"/>
</g>
<defs>
<clipPath id="clip0_1952_44097">
<rect width="14" height="14" fill="white"/>
</clipPath>
</defs>
</svg>
