<svg width="14" height="14" viewBox="0 0 14 14" fill="none" xmlns="http://www.w3.org/2000/svg">
<g clip-path="url(#clip0_1947_41584)">
<path d="M4.15625 6.5625C4.28604 6.5625 4.41292 6.60099 4.52084 6.6731C4.62876 6.74521 4.71288 6.8477 4.76255 6.96761C4.81222 7.08753 4.82521 7.21948 4.79989 7.34678C4.77457 7.47408 4.71207 7.59101 4.62029 7.68279C4.52851 7.77457 4.41158 7.83707 4.28428 7.86239C4.15698 7.88771 4.02503 7.87472 3.90511 7.82505C3.7852 7.77538 3.68271 7.69126 3.6106 7.58334C3.53849 7.47542 3.5 7.34854 3.5 7.21875C3.5 7.0447 3.56914 6.87778 3.69221 6.75471C3.81528 6.63164 3.9822 6.5625 4.15625 6.5625ZM4.15625 5.6875C3.8534 5.6875 3.55735 5.77731 3.30553 5.94556C3.05372 6.11382 2.85746 6.35297 2.74156 6.63277C2.62566 6.91257 2.59534 7.22045 2.65442 7.51748C2.71351 7.81452 2.85934 8.08736 3.07349 8.30151C3.28764 8.51566 3.56048 8.66149 3.85752 8.72058C4.15455 8.77966 4.46243 8.74934 4.74223 8.63344C5.02203 8.51754 5.26118 8.32128 5.42944 8.06947C5.59769 7.81765 5.6875 7.5216 5.6875 7.21875C5.6875 6.81264 5.52617 6.42316 5.23901 6.13599C4.95184 5.84883 4.56236 5.6875 4.15625 5.6875Z" fill="#161616"/>
<path d="M10.9375 6.12481H7.4375C7.20544 6.12481 6.98288 6.217 6.81878 6.38109C6.65469 6.54519 6.5625 6.76775 6.5625 6.99981V9.62481H1.75V4.63731L7 1.81106L12.4819 4.75981L12.8931 3.98981L7.20562 0.92731C7.14233 0.893605 7.07171 0.875977 7 0.875977C6.92829 0.875977 6.85767 0.893605 6.79437 0.92731L1.10687 3.98981C1.03702 4.02701 0.978555 4.08246 0.937722 4.15026C0.896888 4.21806 0.875211 4.29566 0.875 4.37481V13.1248H1.75V10.4998H12.25V13.1248H13.125V8.31231C13.125 7.73215 12.8945 7.17575 12.4843 6.76551C12.0741 6.35528 11.5177 6.12481 10.9375 6.12481ZM7.4375 9.62481V6.99981H10.9375C11.2856 6.99981 11.6194 7.13809 11.8656 7.38423C12.1117 7.63037 12.25 7.96421 12.25 8.31231V9.62481H7.4375Z" fill="#161616"/>
</g>
<defs>
<clipPath id="clip0_1947_41584">
<rect width="14" height="14" fill="white"/>
</clipPath>
</defs>
</svg>
