<svg width="14" height="14" viewBox="0 0 14 14" fill="none" xmlns="http://www.w3.org/2000/svg">
<path d="M0.875 7C0.875 8.21141 1.23423 9.39562 1.90725 10.4029C2.58027 11.4101 3.53687 12.1952 4.65606 12.6588C5.77526 13.1223 7.00679 13.2436 8.19493 13.0073C9.38306 12.771 10.4744 12.1876 11.331 11.331C12.1876 10.4744 12.771 9.38306 13.0073 8.19493C13.2436 7.00679 13.1223 5.77526 12.6588 4.65606C12.1952 3.53687 11.4101 2.58027 10.4029 1.90725C9.39562 1.23423 8.21141 0.875 7 0.875C5.37555 0.875 3.81763 1.52031 2.66897 2.66897C1.52031 3.81763 0.875 5.37555 0.875 7ZM11.0031 10.3906L3.60937 2.99687C4.6159 2.15906 5.89922 1.72768 7.20745 1.78739C8.51568 1.8471 9.75436 2.3936 10.6804 3.31962C11.6064 4.24564 12.1529 5.48432 12.2126 6.79255C12.2723 8.10078 11.8409 9.3841 11.0031 10.3906ZM3.605 11.0075C2.54552 10.1078 1.88606 8.82464 1.77124 7.43943C1.65643 6.05421 2.09561 4.68 2.9925 3.61812L10.3819 11.0075C9.43435 11.8081 8.23393 12.2474 6.99344 12.2474C5.75295 12.2474 4.55253 11.8081 3.605 11.0075Z" fill="black"/>
</svg>
