<svg width="14" height="14" viewBox="0 0 14 14" fill="none" xmlns="http://www.w3.org/2000/svg">
<g clip-path="url(#clip0_1952_44096)">
<path d="M13.125 3.5H7V4.375H13.125V3.5Z" fill="#161616"/>
<path d="M13.125 9.625H7V10.5H13.125V9.625Z" fill="#161616"/>
<path d="M4.375 6.125H1.75C1.51802 6.12473 1.29561 6.03246 1.13158 5.86842C0.967539 5.70439 0.875266 5.48198 0.875 5.25V2.625C0.875266 2.39302 0.967539 2.17061 1.13158 2.00658C1.29561 1.84254 1.51802 1.75027 1.75 1.75H4.375C4.60698 1.75027 4.82939 1.84254 4.99342 2.00658C5.15746 2.17061 5.24973 2.39302 5.25 2.625V5.25C5.24973 5.48198 5.15746 5.70439 4.99342 5.86842C4.82939 6.03246 4.60698 6.12473 4.375 6.125ZM1.75 2.625V5.25H4.37552L4.375 2.625H1.75Z" fill="#161616"/>
<path d="M4.375 12.25H1.75C1.51802 12.2497 1.29561 12.1575 1.13158 11.9934C0.967539 11.8294 0.875266 11.607 0.875 11.375V8.75C0.875266 8.51802 0.967539 8.29561 1.13158 8.13158C1.29561 7.96754 1.51802 7.87527 1.75 7.875H4.375C4.60698 7.87527 4.82939 7.96754 4.99342 8.13158C5.15746 8.29561 5.24973 8.51802 5.25 8.75V11.375C5.24973 11.607 5.15746 11.8294 4.99342 11.9934C4.82939 12.1575 4.60698 12.2497 4.375 12.25ZM1.75 8.75V11.375H4.37552L4.375 8.75H1.75Z" fill="#161616"/>
</g>
<defs>
<clipPath id="clip0_1952_44096">
<rect width="14" height="14" fill="white"/>
</clipPath>
</defs>
</svg>
