<svg width="14" height="14" viewBox="0 0 14 14" fill="none" xmlns="http://www.w3.org/2000/svg">
<g clip-path="url(#clip0_1920_39719)">
<path d="M7 7.875C6.56735 7.875 6.14442 7.74671 5.78469 7.50634C5.42496 7.26598 5.14458 6.92433 4.97901 6.52462C4.81345 6.12491 4.77013 5.68507 4.85453 5.26074C4.93894 4.83641 5.14728 4.44663 5.45321 4.14071C5.75913 3.83478 6.14891 3.62644 6.57324 3.54203C6.99757 3.45763 7.43741 3.50095 7.83712 3.66651C8.23683 3.83208 8.57848 4.11246 8.81884 4.47219C9.05921 4.83192 9.1875 5.25485 9.1875 5.6875C9.18684 6.26746 8.95616 6.82347 8.54607 7.23357C8.13597 7.64366 7.57996 7.87434 7 7.875ZM7 4.375C6.74041 4.375 6.48665 4.45198 6.27082 4.5962C6.05498 4.74042 5.88675 4.9454 5.78741 5.18523C5.68807 5.42506 5.66208 5.68896 5.71272 5.94356C5.76336 6.19816 5.88837 6.43202 6.07192 6.61558C6.25548 6.79914 6.48935 6.92414 6.74395 6.97478C6.99855 7.02542 7.26244 6.99943 7.50227 6.90009C7.7421 6.80075 7.94709 6.63253 8.09131 6.41669C8.23552 6.20085 8.3125 5.94709 8.3125 5.6875C8.31212 5.33952 8.17372 5.0059 7.92766 4.75985C7.6816 4.51379 7.34798 4.37538 7 4.375Z" fill="#161616"/>
<path d="M7 13.125L3.30947 8.77244C3.28851 8.74746 3.15713 8.57491 3.15713 8.57491C2.52665 7.74449 2.18602 6.73015 2.1875 5.6875C2.1875 4.41115 2.69453 3.18707 3.59705 2.28455C4.49956 1.38203 5.72364 0.875 7 0.875C8.27635 0.875 9.50043 1.38203 10.4029 2.28455C11.3055 3.18707 11.8125 4.41115 11.8125 5.6875C11.8141 6.72972 11.4737 7.74367 10.8435 8.57382L10.8429 8.57491C10.8429 8.57491 10.7116 8.74746 10.6921 8.77065L7 13.125ZM3.85547 8.04781C3.8559 8.04812 3.95758 8.18265 3.98085 8.21161L7 11.7722L10.0231 8.20658C10.0423 8.18243 10.1449 8.04694 10.1451 8.04659C10.6601 7.36806 10.9385 6.53937 10.9375 5.6875C10.9375 4.64321 10.5227 3.64169 9.78423 2.90327C9.0458 2.16484 8.04429 1.75 7 1.75C5.95571 1.75 4.95419 2.16484 4.21576 2.90327C3.47734 3.64169 3.0625 4.64321 3.0625 5.6875C3.06153 6.53983 3.34008 7.36896 3.85547 8.04781Z" fill="#161616"/>
</g>
<defs>
<clipPath id="clip0_1920_39719">
<rect width="14" height="14" fill="white"/>
</clipPath>
</defs>
</svg>
