<svg width="14" height="10" viewBox="0 0 14 10" fill="none" xmlns="http://www.w3.org/2000/svg">
<path fill-rule="evenodd" clip-rule="evenodd" d="M0.769227 1.53845C0.769227 1.45 0.784157 1.36502 0.811623 1.28596L4.25953 4.73386L0.769227 8.22426V1.53845ZM0.239468 0.713779C0.0878433 0.952144 0 1.23502 0 1.53845V8.4615L0.00826318 8.6185C0.0188973 8.72343 0.0400717 8.82527 0.0707065 8.92288C0.154043 9.18838 0.307404 9.42275 0.509172 9.60459C0.745236 9.81727 1.04755 9.95789 1.38148 9.99174L1.53845 10L12.3076 9.99995L12.4646 9.99174C12.7985 9.95789 13.1009 9.81727 13.337 9.60463C13.5388 9.42289 13.6922 9.18847 13.7756 8.92302C13.8214 8.77733 13.8461 8.6223 13.8461 8.4615V1.53845C13.8461 1.23502 13.7582 0.952144 13.6066 0.713779C13.4671 0.494476 13.2736 0.312874 13.0448 0.187753C12.8259 0.0680304 12.5747 0 12.3076 0H1.53845C1.27138 0 1.0202 0.0680304 0.801317 0.187753C0.572507 0.312874 0.37898 0.494476 0.239468 0.713779ZM4.80347 4.1899L1.39596 0.78242C1.44214 0.773781 1.48977 0.769227 1.53845 0.769227H12.3076C12.3563 0.769227 12.404 0.773781 12.4501 0.78242L9.04262 4.1899L8.49864 4.73386L7.46696 5.76554C7.16657 6.06597 6.67952 6.06597 6.37913 5.76554L5.34745 4.73386L4.80347 4.1899ZM4.80349 5.27783L1.03672 9.04462C1.17142 9.16063 1.34676 9.23077 1.53845 9.23077H12.3076C12.4994 9.23077 12.6747 9.16058 12.8094 9.04457L9.0426 5.27787L8.0109 6.3095C7.4101 6.91027 6.43599 6.91027 5.83519 6.3095L4.80349 5.27783ZM13.0769 8.22421V1.53845C13.0769 1.45 13.0619 1.36507 13.0345 1.28596L9.58656 4.73391L13.0769 8.22421Z" fill="#151515"/>
</svg>
