<svg width="240" height="32" viewBox="0 0 240 32" fill="none" xmlns="http://www.w3.org/2000/svg">
<g clip-path="url(#clip0_1909_7774)">
<path d="M124.863 10.1869C124.689 5.54032 120.403 4.37437 117.065 5.7742C116.129 6.16629 115.174 7.00206 114.559 7.86534C113.284 5.18607 109.982 4.64608 107.293 5.7742C106.358 6.16629 105.403 7.00206 104.784 7.86534C104.79 7.53172 104.794 7.18779 104.8 6.90232C104.82 5.79484 104.288 5.69509 103.333 5.65038C101.619 5.56784 100.031 5.56784 98.1907 5.65726C97.4452 5.69165 97.2588 5.91177 97.2588 6.64436C97.2854 12.8524 97.2921 19.0605 97.2588 25.2686C97.2555 26.125 97.5517 26.2901 98.2839 26.2729C99.9846 26.2282 101.685 26.2557 103.386 26.2592C104.675 26.2637 105.32 25.6091 105.32 24.2953C105.32 20.3847 105.326 16.4741 105.306 12.5601C105.303 11.9479 105.409 11.4423 106.052 11.3632C106.747 11.2772 107.037 11.8241 107.137 12.4122C107.227 12.935 107.197 13.4853 107.197 14.0218C107.203 17.7192 107.243 21.4131 107.177 25.1104C107.16 26.1147 107.49 26.2592 108.358 26.2626C109.819 26.2695 111.553 26.2626 112.871 26.2626C114.189 26.2626 115.008 26.4105 115.064 25.4647C115.191 23.3666 115.174 20.9797 115.174 20.0029C115.174 18.3004 115.141 15.8344 115.141 12.2678C115.141 11.714 115.421 11.4148 115.82 11.3666C116.516 11.2806 116.805 11.8275 116.905 12.4156C116.995 12.9384 116.965 13.4887 116.965 14.0253C116.971 17.7226 117.011 21.4165 116.945 25.1138C116.928 26.1181 117.258 26.2626 118.126 26.266C119.587 26.2729 121.321 26.266 122.639 26.266C123.957 26.266 124.776 26.4139 124.833 25.4681C124.959 23.3701 124.942 20.9831 124.942 20.0064C124.942 18.0459 125.029 14.8645 124.853 10.1835L124.863 10.1869Z" fill="black"/>
<path d="M54.0493 0.13334C52.3353 0.0507953 50.2286 0.0507953 48.3848 0.140219C47.6393 0.174613 47.4529 0.394733 47.4529 1.12732C47.4795 7.3354 47.4862 19.0637 47.4529 25.2718C47.4496 26.1282 47.7458 26.2933 48.478 26.2761C50.1787 26.2314 51.8794 26.2589 53.5834 26.2623C54.8725 26.2669 55.5159 25.6123 55.5137 24.2984V1.38184C55.5137 0.274355 55.0012 0.174613 54.046 0.129901L54.0493 0.13334Z" fill="black"/>
<path d="M149.814 18.7759C148.516 18.7002 147.218 19.1336 146.316 20.3546C145.767 21.0975 145.634 21.8954 145.607 22.8344C145.607 25.3589 147.797 26.3288 149.231 26.4285C149.847 26.4698 149.96 26.4285 150.273 26.401C150.273 26.401 149.681 26.8756 149.178 27.2368C148.992 27.3709 148.815 27.591 149.002 27.9143C149.121 28.1207 149.384 28.5197 149.511 28.7192C149.641 28.9255 149.973 28.9496 150.263 28.6813C151.045 27.9453 151.501 27.45 152.084 26.7553C152.739 25.978 153.262 25.2282 153.558 23.8249C153.764 22.8516 153.778 21.5171 152.839 20.2824C152.054 19.2471 150.902 18.8413 149.814 18.7793V18.7759Z" fill="black"/>
<path d="M209.79 5.82904C208.09 5.82904 206.945 5.84623 205.241 5.84279C203.307 5.83591 203.307 6.12482 203.307 8.09559C203.307 12.0062 203.3 15.6278 203.32 19.5384C203.324 20.1506 203.217 20.6562 202.575 20.7353C201.879 20.8213 201.59 20.2744 201.49 19.6863C201.4 19.1635 201.43 18.6132 201.43 18.0767C201.423 14.3793 201.383 11.0294 201.45 7.33548C201.467 6.33118 201.323 5.84967 200.268 5.8256C198.864 5.79464 197.19 5.8256 196.311 5.84623C195.379 5.86687 194.457 5.93222 193.985 6.32431C193.579 6.65793 193.239 7.05345 193.233 8.03024C193.206 12.3879 193.06 17.4163 193.519 21.6674C194.051 26.5857 197.902 27.9993 201.34 26.3312C202.255 25.8875 203.194 25.1412 203.903 24.553C203.926 24.8763 203.919 25.0621 203.926 25.2512C203.976 26.283 204.176 26.4928 205.127 26.4516C206.895 26.3725 208.669 26.3931 210.439 26.4447C211.185 26.4653 211.371 26.1902 211.371 25.4576C211.344 19.2495 211.338 13.4266 211.371 7.21854C211.374 6.36214 211.221 5.82904 209.79 5.82904Z" fill="#FF7900"/>
<path d="M192.074 10.1869C191.901 5.54032 187.615 4.37437 184.277 5.7742C183.341 6.16629 182.386 7.00206 181.767 7.86534C181.774 7.53172 181.777 7.18779 181.784 6.90232C181.804 5.79484 181.271 5.69509 180.316 5.65038C178.602 5.56784 177.015 5.56784 175.174 5.65726C174.429 5.69165 174.242 5.91177 174.242 6.64436C174.269 12.8524 174.275 19.0605 174.242 25.2686C174.239 26.125 174.535 26.2901 175.267 26.2729C176.968 26.2282 178.669 26.2557 180.373 26.2592C181.662 26.2637 182.306 25.6091 182.306 24.2953C182.306 20.3847 182.313 16.4741 182.293 12.5601C182.29 11.9479 182.396 11.4423 183.039 11.3632C183.734 11.2772 184.024 11.8241 184.124 12.4122C184.213 12.935 184.183 13.4853 184.183 14.0218C184.19 17.7192 184.23 21.4131 184.163 25.1104C184.147 26.1147 184.476 26.2592 185.345 26.2626C186.806 26.2695 188.54 26.2626 189.858 26.2626C191.176 26.2626 191.995 26.4105 192.051 25.4647C192.178 23.3666 192.161 20.9797 192.161 20.0029C192.161 18.0425 192.248 14.861 192.071 10.18L192.074 10.1869Z" fill="#FF7900"/>
<path d="M171.51 15.3529C170.365 14.5447 169.197 14.1457 167.689 13.6814C166.744 13.3925 165.516 13.1483 164.797 12.9488C164.225 12.7871 163.326 12.6289 163.1 11.9548C162.973 11.5799 163.12 11.181 163.276 11.0055C163.443 10.8198 163.676 10.6754 163.968 10.5825C164.285 10.4828 164.601 10.469 164.98 10.4793C165.503 10.4931 166.009 10.727 166.325 10.9987C166.774 11.3873 166.911 11.6659 167.07 12.1577C167.21 12.5911 167.513 12.8353 168.395 12.8353H172.608C173.167 12.8353 173.384 12.794 173.577 12.5808C173.777 12.3607 173.767 11.9892 173.74 11.6969C173.64 10.5447 173.274 9.59884 172.602 8.63582C172.043 7.83444 171.024 6.83014 169.883 6.21105C168.528 5.47846 166.871 4.85938 164.81 4.85938C162.75 4.85938 161.333 5.18268 160.104 5.67795C158.733 6.23169 157.638 7.08122 156.903 8.14742C156.267 9.07262 155.681 10.3555 155.681 12.0064C155.668 13.7295 156.181 14.9333 157.209 16.0339C158.231 17.1242 159.981 17.8877 161.765 18.2626C162.611 18.4415 164.035 18.7304 164.791 18.8852C165.516 19.0331 166.005 19.1775 166.368 19.432C166.564 19.5696 166.701 19.8035 166.701 20.144C166.701 20.3882 166.578 20.6977 166.425 20.8663C166.258 21.0485 166.108 21.1552 165.789 21.2687C165.596 21.3374 165.383 21.3718 164.957 21.3718C164.221 21.3718 163.722 21.2033 163.263 20.8628C162.917 20.6083 162.797 20.3847 162.587 20.0133C162.381 19.6522 162.061 19.3598 161.642 19.3598H156.347C156.047 19.3598 155.765 19.4905 155.572 19.7175C155.372 19.9548 155.289 20.2609 155.352 20.5636C155.578 21.6883 156.017 22.7029 156.666 23.5799C157.482 24.6874 158.617 25.5576 160.041 26.1663C161.456 26.7717 163.146 27.0812 165.073 27.0812C167 27.0812 168.159 26.8611 169.55 26.2489C171.171 25.5369 171.816 24.8456 172.285 24.285C173.264 23.1087 173.85 21.4681 173.85 19.9789C173.85 18.3589 173.058 16.4466 171.507 15.3529H171.51Z" fill="#FF7900"/>
<path d="M227.406 21.1728C226.841 20.9837 226.255 20.8564 225.666 20.7257C224.588 20.4918 223.496 20.4953 222.438 20.4987C221.882 20.4987 221.306 20.5021 220.747 20.4678C220.075 20.4299 219.858 20.2717 219.855 19.8177C219.852 19.3568 220.065 19.1986 220.734 19.1711L221.176 19.1539C222.095 19.1161 223.043 19.0782 223.978 18.9269C227.11 18.4248 229.473 16.1135 229.856 13.1763C230.312 9.67154 228.824 6.91659 225.789 5.58899C225.489 5.4583 225.366 5.35856 225.33 5.15907C225.27 4.83577 225.423 4.5675 225.516 4.33706C225.762 3.72829 226.165 2.81341 226.385 2.30782C226.688 1.60963 226.704 1.03525 226.461 0.61221C226.278 0.292347 225.939 0.161651 225.273 0.072227C224.924 0.0240757 224.617 0 223.679 0C222.94 0 221.945 0.0206363 221.279 0.0653482C220.813 0.0963027 220.514 0.151333 220.351 0.316423C220.031 0.643164 219.941 1.11436 219.988 1.71969C220.015 2.07395 220.015 2.32158 220.028 2.5417C220.055 2.95443 220.078 3.14015 219.991 3.68014C219.878 4.39553 218.826 4.96303 218.154 5.12124C216.074 5.60963 214.583 6.51419 213.598 7.8865C212.22 9.80911 211.901 11.7627 212.616 13.8641C212.866 14.6002 213.215 15.2468 213.678 15.8383C213.931 16.1616 214.034 16.5778 213.964 16.9802C213.901 17.3414 213.691 17.6199 213.405 17.8194C212.673 18.3285 212.42 18.6552 212.313 19.5185C212.164 20.7601 212.803 21.221 213.302 21.5615C213.551 21.7334 213.771 21.8848 213.834 22.0843C213.957 22.4695 213.818 22.8822 213.635 23.0989C212.423 24.5606 211.977 26.2906 212.416 27.8521C212.859 29.4308 214.323 30.6449 215.988 31.2468C217.572 31.8212 219.625 31.9931 221.106 31.9931C222.244 31.9931 223.463 31.9312 224.764 31.718C226.401 31.4497 228.105 30.638 229.034 29.6509C230.139 28.4746 230.894 26.2941 230.448 24.4471C230.066 22.8581 228.987 21.6922 227.41 21.166L227.406 21.1728ZM220.75 10.1427C220.853 9.69905 221.1 9.6853 221.189 9.68186C221.203 9.68186 221.216 9.68186 221.229 9.68186C221.412 9.68186 221.609 9.75064 221.729 10.1496C221.908 10.7515 221.912 11.3947 221.898 11.828V11.8383C221.905 12.5813 221.892 13.1969 221.709 13.785C221.586 14.1668 221.402 14.2218 221.239 14.2218C220.923 14.2012 220.813 14.0017 220.77 13.816C220.481 12.5847 220.474 11.35 220.753 10.1393L220.75 10.1427ZM222.118 26.9957C221.725 27.0232 221.213 27.0301 220.82 27.0026C219.945 26.9441 219.695 26.4144 219.695 26.0739C219.695 25.644 220.028 25.2003 220.747 25.1522C221.136 25.1281 221.546 25.1247 221.932 25.1453C222.81 25.1969 223.16 25.5512 223.163 26.0224C223.17 26.5899 222.744 26.951 222.118 26.9923V26.9957Z" fill="#FF7900"/>
<path d="M239.228 20.1762C238.419 19.2304 237.408 18.7695 235.98 18.7695C233.693 18.7695 231.939 20.3585 231.939 22.4359C231.939 24.5133 233.444 26.4497 235.73 26.4497C238.017 26.4497 239.637 25.3387 239.957 23.2889C240.11 22.3087 239.86 20.9191 239.228 20.1797V20.1762Z" fill="#FF7900"/>
<path d="M87.7734 5.01054C83.5499 4.53591 79.9455 6.46196 78.0618 10.0699C76.5342 12.9899 76.4044 16.0957 77.0534 19.2565C78.3913 25.7672 85.4736 29.1309 91.3178 25.9529C95.1752 23.8549 96.4665 20.2539 96.6063 16.1025C96.6362 14.5995 96.4266 13.1344 95.9273 11.7311C94.5595 7.87555 91.9003 5.47486 87.7734 5.01054ZM87.4705 19.8343C87.4106 20.3915 87.344 21.3614 86.6052 21.3132C85.8464 21.2616 85.7465 20.5221 85.7132 19.9684C85.63 18.6408 85.6533 17.3063 85.66 15.9753C85.6666 14.6821 85.6799 13.3854 85.7399 12.0922C85.7665 11.511 85.843 10.8197 86.6152 10.7784C87.3806 10.7371 87.4572 11.5798 87.4971 12.1369C87.6036 13.5643 87.587 14.486 87.587 15.793C87.587 17.2754 87.6069 18.5789 87.4705 19.8377V19.8343Z" fill="black"/>
<path d="M33.3249 6.10235C29.5407 8.32075 28.2294 11.9493 28.326 16.1213C28.4225 20.2107 29.3344 23.5091 33.1784 25.6243C38.9028 28.7782 45.9053 25.8031 46.6475 19.5331C46.734 18.8074 46.5443 18.5667 45.7655 18.5735C44.0848 18.5873 42.1778 18.5632 40.284 18.5632C39.6184 18.5632 39.239 18.8877 39.1458 19.5366C39.0926 19.908 39.026 20.4377 38.8097 20.7541C38.5833 21.0843 38.2405 21.16 37.8611 21.1221C37.3819 21.074 37.1123 20.8779 36.9492 20.4205C36.6663 19.6329 36.673 18.8797 36.7196 17.5727C36.7429 16.8745 37.0491 16.5478 37.8279 16.5478C39.3754 16.5478 40.4271 16.5649 41.7251 16.5615C43.0997 16.5615 44.2778 16.5753 45.6523 16.5753C46.3646 16.5753 46.6774 16.2245 46.714 15.5572C46.7706 14.5116 46.724 13.7653 46.6375 12.957C45.9785 6.60106 39.4054 2.72488 33.3182 6.09547L33.3249 6.10235ZM38.1274 12.9639C37.6648 12.9708 36.9259 12.8435 36.9292 12.2038C36.9592 10.9244 37.0125 9.92695 38.1041 9.92695C39.1957 9.92695 39.2856 10.6836 39.2856 12.1729C39.2856 12.9054 38.6366 12.9536 38.1274 12.9605V12.9639Z" fill="black"/>
<path d="M130.873 6.10235C127.089 8.32075 125.778 11.9493 125.874 16.1213C125.971 20.2107 127.282 23.7395 131.123 25.8547C136.847 29.0086 143.45 25.8031 144.192 19.5331C144.279 18.8074 144.089 18.5667 143.311 18.5735C141.63 18.5873 139.723 18.5632 137.829 18.5632C137.163 18.5632 136.785 18.8877 136.694 19.5366C136.641 19.908 136.574 20.4377 136.358 20.7541C136.132 21.0843 135.789 21.16 135.409 21.1221C134.93 21.074 134.661 20.8779 134.498 20.4205C134.215 19.6329 134.221 18.8797 134.268 17.5727C134.291 16.8745 134.597 16.5478 135.376 16.5478C136.924 16.5478 137.975 16.5649 139.273 16.5615C140.648 16.5615 141.826 16.5753 143.201 16.5753C143.913 16.5753 144.226 16.2245 144.262 15.5572C144.319 14.5116 144.272 13.7653 144.186 12.957C143.527 6.60106 136.954 2.72488 130.867 6.09547L130.873 6.10235ZM135.676 12.9639C135.213 12.9708 134.474 12.8435 134.478 12.2038C134.508 10.9244 134.561 9.92694 135.652 9.92694C136.744 9.92694 136.834 10.6836 136.834 12.1729C136.834 12.9054 136.185 12.9536 135.676 12.9605V12.9639Z" fill="black"/>
<path d="M28.2591 5.6617C26.4186 5.57228 25.5732 5.57228 23.8592 5.65483C22.9074 5.69954 22.6777 5.84055 22.3915 6.90676C21.7492 9.31777 21.1035 11.746 20.4579 14.1295C19.8155 11.746 19.1665 9.3212 18.5242 6.90676C18.2413 5.84055 18.0117 5.69954 17.0565 5.65483C16.0713 5.60667 15.3724 5.58948 14.6103 5.59636C13.8448 5.58948 13.1492 5.60667 12.1641 5.65483C11.2122 5.69954 10.9826 5.84055 10.6964 6.90676C10.054 9.31777 9.40838 11.746 8.76271 14.1295C8.12038 11.746 7.47139 9.3212 6.82906 6.90676C6.54616 5.84055 6.31652 5.69954 5.36134 5.65483C3.64734 5.57228 2.80532 5.57228 0.961517 5.6617C0.21601 5.6961 -0.133446 5.93685 0.0296333 6.64881C1.54062 13.2421 2.42591 16.5577 4.7889 25.2731C5.01188 26.0985 5.08177 26.2945 5.81397 26.2774C6.49957 26.2602 6.9755 26.2533 7.41814 26.2533C7.55792 26.2602 7.70436 26.2636 7.86744 26.2636C8.21024 26.2636 8.49979 26.2636 8.76271 26.2602C9.02231 26.2602 9.31519 26.2636 9.65799 26.2636C9.81774 26.2636 9.96751 26.2602 10.1073 26.2533C10.5466 26.2533 11.0259 26.2602 11.7115 26.2774C12.4437 26.2945 12.5135 26.0985 12.7365 25.2731C13.4887 22.4975 14.0911 20.2688 14.6103 18.3083C15.1295 20.2688 15.7319 22.494 16.484 25.2731C16.707 26.0985 16.7769 26.2945 17.5091 26.2774C18.1947 26.2602 18.6706 26.2533 19.1133 26.2533C19.2531 26.2602 19.3995 26.2636 19.5626 26.2636C19.9054 26.2636 20.1949 26.2636 20.4579 26.2602C20.7175 26.2602 21.0103 26.2636 21.3531 26.2636C21.5129 26.2636 21.6626 26.2602 21.8024 26.2533C22.2417 26.2533 22.721 26.2602 23.4066 26.2774C24.1388 26.2945 24.2087 26.0985 24.4317 25.2731C26.7913 16.5577 27.68 13.2421 29.1909 6.64881C29.354 5.93685 29.0046 5.6961 28.2591 5.6617Z" fill="black"/>
<path d="M66.1605 10.7754C66.926 10.7341 67.0025 11.5768 67.0424 12.134C67.1023 12.9319 67.129 13.2862 67.129 13.9293C67.129 14.7204 67.5084 15.0471 68.407 15.0471H75.1099C75.669 15.0471 76.1017 14.5312 76.0185 13.9603C75.9086 13.2036 75.7289 12.4607 75.4693 11.735C74.1015 7.87945 71.4423 5.47877 67.3153 5.01445C63.0919 4.53981 59.4875 6.46587 57.6038 10.0738C56.0762 12.9938 55.9464 16.0996 56.5954 19.2604C57.9333 25.7711 65.0156 29.1348 70.8598 25.9568C74.0682 24.2131 75.4993 21.4306 75.9719 18.1563C76.0551 17.5819 75.6258 17.0626 75.0633 17.0626H68.3438C67.5683 17.0626 67.1323 17.3378 67.1223 18.1013C67.1123 18.7754 67.0824 19.2053 67.0125 19.8382C66.9526 20.3954 66.886 21.3653 66.1472 21.3171C65.3883 21.2655 65.2885 20.5261 65.2552 19.9723C65.1454 18.1976 65.2219 16.4091 65.1986 14.631C65.1853 13.7058 65.2186 12.7771 65.2985 11.8554C65.3451 11.3395 65.4882 10.8167 66.1605 10.7789V10.7754Z" fill="black"/>
</g>
<defs>
<clipPath id="clip0_1909_7774">
<rect width="240" height="32" fill="white"/>
</clipPath>
</defs>
</svg>
