<svg width="67" height="26" viewBox="0 0 67 26" fill="none" xmlns="http://www.w3.org/2000/svg">
<path d="M43.2622 4.63032C41.9112 4.63032 41.0017 4.64398 39.6481 4.64125C38.112 4.63579 38.112 4.86529 38.112 6.43083C38.112 9.53732 38.1067 12.4143 38.1226 15.5208C38.1252 16.0071 38.0406 16.4088 37.5304 16.4716C36.9778 16.5399 36.7478 16.1055 36.6685 15.6383C36.5971 15.223 36.6209 14.7858 36.6209 14.3596C36.6156 11.4225 36.5839 8.76138 36.6368 5.82702C36.65 5.02922 36.5363 4.64672 35.6982 4.62759C34.5825 4.603 33.2527 4.62759 32.5547 4.64398C31.8144 4.66038 31.0821 4.71229 30.7067 5.02376C30.3841 5.28878 30.1144 5.60298 30.1091 6.37892C30.088 9.84059 29.9717 13.835 30.3365 17.212C30.7595 21.119 33.8184 22.242 36.5495 20.9169C37.2766 20.5644 38.0221 19.9715 38.5853 19.5043C38.6038 19.7611 38.5985 19.9087 38.6038 20.059C38.6434 20.8786 38.8021 21.0453 39.5582 21.0125C40.9621 20.9496 42.3712 20.966 43.7777 21.007C44.37 21.0234 44.518 20.8048 44.518 20.2229C44.4969 15.2913 44.4916 10.6657 44.518 5.73412C44.5206 5.05381 44.399 4.63032 43.2622 4.63032Z" fill="#FF7900"/>
<path d="M29.1891 8.09311C29.0516 4.40194 25.6464 3.47573 22.9946 4.58772C22.2517 4.89919 21.4929 5.56311 21.0012 6.24889C21.0065 5.98387 21.0091 5.71065 21.0144 5.48388C21.0302 4.60412 20.6072 4.52488 19.8484 4.48937C18.4869 4.42379 17.2258 4.42379 15.7637 4.49483C15.1715 4.52215 15.0235 4.69701 15.0235 5.27897C15.0446 10.2106 15.0499 15.1421 15.0235 20.0737C15.0208 20.754 15.2561 20.8852 15.8378 20.8715C17.1888 20.836 18.5398 20.8579 19.8934 20.8606C20.9174 20.8642 21.4295 20.3442 21.4295 19.3005C21.4295 16.194 21.4347 13.0875 21.4189 9.97832C21.4162 9.49199 21.5008 9.09036 22.0111 9.02752C22.5637 8.95922 22.7937 9.39363 22.873 9.86084C22.9444 10.2761 22.9206 10.7133 22.9206 11.1395C22.9259 14.0766 22.9576 17.011 22.9047 19.9481C22.8915 20.7458 23.1532 20.8606 23.8433 20.8633C25.0039 20.8688 26.3814 20.8633 27.4283 20.8633C28.4753 20.8633 29.1256 20.9808 29.1706 20.2295C29.2711 18.5628 29.2578 16.6667 29.2578 15.8908C29.2578 14.3334 29.3266 11.8061 29.1864 8.08765L29.1891 8.09311Z" fill="#FF7900"/>
<path d="M12.8523 12.1953C11.9428 11.5532 11.0148 11.2363 9.81719 10.8674C9.06634 10.6379 8.09077 10.4439 7.5197 10.2855C7.06496 10.1571 6.35113 10.0314 6.17135 9.49587C6.07088 9.19806 6.18721 8.88113 6.31147 8.74178C6.44366 8.59425 6.62873 8.4795 6.86139 8.40573C7.11255 8.32649 7.36371 8.31556 7.66511 8.32376C8.08019 8.33469 8.48205 8.52048 8.73322 8.73632C9.09013 9.04506 9.19853 9.26636 9.32543 9.65707C9.43647 10.0013 9.67706 10.1953 10.3777 10.1953H13.7248C14.1689 10.1953 14.3408 10.1625 14.4941 9.99312C14.6527 9.81826 14.6448 9.52319 14.6237 9.29095C14.5444 8.37567 14.2535 7.62432 13.7195 6.85931C13.2753 6.22271 12.4663 5.42492 11.5595 4.93312C10.4834 4.35117 9.16681 3.85938 7.53028 3.85938C5.89375 3.85938 4.76747 4.1162 3.7919 4.50963C2.70264 4.94952 1.83283 5.62436 1.24854 6.47134C0.74357 7.2063 0.278253 8.2254 0.278253 9.53685C0.267677 10.9057 0.674826 11.8619 1.49177 12.7362C2.30342 13.6023 3.69408 14.2089 5.11117 14.5067C5.7827 14.6488 6.91427 14.8783 7.51442 15.0012C8.09077 15.1187 8.47941 15.2334 8.76759 15.4356C8.92357 15.5449 9.03197 15.7307 9.03197 16.0012C9.03197 16.1952 8.93414 16.4411 8.81253 16.575C8.68034 16.7198 8.56137 16.8045 8.30756 16.8946C8.15422 16.9493 7.98502 16.9766 7.64661 16.9766C7.06232 16.9766 6.66574 16.8427 6.30089 16.5722C6.02593 16.37 5.93076 16.1924 5.76419 15.8974C5.60028 15.6105 5.34647 15.3783 5.01335 15.3783H0.807018C0.569074 15.3783 0.344352 15.4821 0.19101 15.6624C0.0323802 15.8509 -0.0337165 16.0941 0.0165162 16.3345C0.196296 17.2279 0.545285 18.0339 1.06083 18.7306C1.70857 19.6104 2.61011 20.3016 3.74167 20.7852C4.86529 21.2661 6.20836 21.512 7.73913 21.512C9.26991 21.512 10.19 21.3371 11.2951 20.8508C12.5826 20.2853 13.0955 19.7361 13.4683 19.2907C14.2456 18.3563 14.7109 17.0531 14.7109 15.87C14.7109 14.5832 14.0817 13.0641 12.8497 12.1953H12.8523Z" fill="#FF7900"/>
<path d="M57.2561 16.8193C56.8067 16.669 56.3414 16.568 55.8734 16.4641C55.0168 16.2783 54.1496 16.2811 53.3089 16.2838C52.8674 16.2838 52.41 16.2865 51.9658 16.2592C51.4318 16.2292 51.2599 16.1035 51.2573 15.7428C51.2547 15.3767 51.4239 15.251 51.9553 15.2292L52.3069 15.2155C53.0366 15.1855 53.7901 15.1554 54.533 15.0352C57.0208 14.6363 58.898 12.8003 59.202 10.467C59.5642 7.6829 58.3824 5.49442 55.9712 4.4398C55.7333 4.33597 55.6355 4.25674 55.6064 4.09827C55.5588 3.84145 55.6804 3.62834 55.7544 3.44528C55.9501 2.96169 56.27 2.23493 56.4445 1.83329C56.6851 1.27866 56.6983 0.822387 56.5053 0.486328C56.3599 0.232235 56.0902 0.128413 55.5614 0.0573758C55.2838 0.0191253 55.0406 0 54.2951 0C53.7081 0 52.9176 0.0163931 52.3889 0.0519115C52.0187 0.0765011 51.7808 0.120216 51.6512 0.251361C51.3974 0.510918 51.326 0.885227 51.363 1.36609C51.3842 1.64751 51.3842 1.84422 51.3948 2.01908C51.4159 2.34694 51.4344 2.49448 51.3657 2.92344C51.2758 3.49173 50.4403 3.94254 49.9063 4.06822C48.2539 4.45619 47.0695 5.17475 46.2869 6.26489C45.1923 7.79218 44.9386 9.34406 45.507 11.0134C45.7053 11.5981 45.9829 12.1118 46.3504 12.5817C46.5513 12.8385 46.6332 13.1691 46.5777 13.4888C46.5275 13.7757 46.3609 13.997 46.1336 14.1554C45.5519 14.5598 45.351 14.8194 45.2664 15.5051C45.1474 16.4915 45.655 16.8576 46.0516 17.1281C46.2499 17.2647 46.4244 17.3849 46.4746 17.5433C46.5724 17.8493 46.4614 18.1772 46.316 18.3493C45.3536 19.5105 44.9994 20.8848 45.3483 22.1252C45.7 23.3793 46.8632 24.3437 48.1852 24.8219C49.4436 25.2782 51.0749 25.4148 52.2514 25.4148C53.1556 25.4148 54.1232 25.3656 55.1569 25.1962C56.4577 24.9831 57.8113 24.3383 58.549 23.5541C59.4267 22.6197 60.0269 20.8875 59.6726 19.4204C59.3686 18.1581 58.512 17.2319 57.2588 16.8139L57.2561 16.8193ZM51.9685 8.05721C52.0505 7.70475 52.2461 7.69383 52.3175 7.69109C52.328 7.69109 52.3386 7.69109 52.3492 7.69109C52.4946 7.69109 52.6506 7.74574 52.7458 8.06267C52.8885 8.5408 52.8912 9.05172 52.8806 9.39598V9.40417C52.8859 9.99432 52.8753 10.4834 52.7299 10.9506C52.6321 11.2539 52.4867 11.2976 52.3571 11.2976C52.106 11.2812 52.0187 11.1227 51.9844 10.9752C51.7543 9.99706 51.749 9.0162 51.9711 8.05447L51.9685 8.05721ZM53.0551 21.4449C52.7431 21.4668 52.336 21.4722 52.024 21.4504C51.3287 21.4039 51.1304 20.9832 51.1304 20.7127C51.1304 20.3712 51.3948 20.0187 51.9658 19.9804C52.2752 19.9613 52.6004 19.9586 52.907 19.975C53.605 20.016 53.8826 20.2974 53.8853 20.6717C53.8906 21.1225 53.5521 21.4094 53.0551 21.4422V21.4449Z" fill="#FF7900"/>
<path d="M63.9352 17.4832C62.9041 17.4231 61.873 17.7673 61.1565 18.7372C60.7203 19.3274 60.6145 19.9613 60.5934 20.7072C60.5934 22.7126 62.333 23.483 63.4725 23.5623C63.9616 23.5951 64.0515 23.5623 64.3 23.5404C64.3 23.5404 63.8294 23.9175 63.4302 24.2043C63.2822 24.3109 63.142 24.4858 63.2901 24.7426C63.3853 24.9065 63.5941 25.2235 63.6946 25.3819C63.7977 25.5458 64.0621 25.565 64.2921 25.3519C64.9134 24.7672 65.2756 24.3737 65.7383 23.8218C66.2591 23.2044 66.6742 22.6087 66.9095 21.494C67.0734 20.7208 67.084 19.6607 66.3384 18.6799C65.7145 17.8575 64.7997 17.5351 63.9352 17.4859V17.4832Z" fill="#FF7900"/>
</svg>
