<svg width="173" height="32" viewBox="0 0 173 32" fill="none" xmlns="http://www.w3.org/2000/svg">
<path d="M143.692 7.47851C142.053 7.47851 140.948 7.49567 139.309 7.49171C137.444 7.48643 137.447 7.75569 137.448 9.60225C137.451 13.2677 137.44 16.6598 137.461 20.3252C137.464 20.8994 137.363 21.3706 136.743 21.4472C136.072 21.529 135.793 21.0142 135.697 20.4638C135.611 19.9728 135.641 19.4594 135.64 18.9552C135.634 15.4917 135.596 12.3516 135.658 8.88949C135.675 7.94708 135.536 7.49567 134.518 7.47455C133.164 7.44683 131.553 7.47719 130.705 7.49567C129.807 7.51414 128.919 7.57486 128.464 7.9418C128.073 8.25594 127.745 8.62419 127.739 9.54021C127.712 13.6253 127.57 18.3374 128.014 22.3196C128.528 26.9274 132.239 28.2526 135.549 26.6885C136.43 26.2728 137.337 25.5732 138.019 25.0241C138.042 25.3264 138.034 25.5019 138.043 25.6775C138.092 26.6463 138.283 26.8416 139.202 26.802C140.905 26.7295 142.614 26.7479 144.32 26.7941C145.038 26.8139 145.219 26.5552 145.217 25.8689C145.193 20.052 145.184 14.5955 145.217 8.77862C145.222 7.97611 145.073 7.47719 143.693 7.47719L143.692 7.47851Z" fill="#FF7900"/>
<path d="M126.62 11.561C126.452 7.20664 122.322 6.11507 119.108 7.42707C118.206 7.79532 117.285 8.57671 116.692 9.38846C116.698 9.07696 116.702 8.75226 116.707 8.48564C116.726 7.4495 116.212 7.35579 115.294 7.31355C113.642 7.237 112.113 7.237 110.339 7.32147C109.622 7.35579 109.439 7.56038 109.442 8.24673C109.465 14.0636 109.475 19.8805 109.442 25.6973C109.437 26.4998 109.723 26.6543 110.429 26.6371C112.067 26.5962 113.708 26.6199 115.347 26.6239C116.59 26.6274 117.21 26.0145 117.208 24.7853C117.205 21.1199 117.216 17.4545 117.195 13.7904C117.192 13.2162 117.293 12.745 117.913 12.6698C118.584 12.5879 118.862 13.1027 118.958 13.6531C119.045 14.1441 119.015 14.6589 119.016 15.1618C119.021 18.6252 119.059 22.0887 118.998 25.5508C118.981 26.4932 119.299 26.6265 120.138 26.6305C121.546 26.6358 123.216 26.6305 124.488 26.6305C125.759 26.6305 126.547 26.7704 126.602 25.8821C126.724 23.9168 126.708 21.6808 126.708 20.7635C126.708 18.9275 126.791 15.9445 126.622 11.5597L126.62 11.561Z" fill="#FF7900"/>
<path d="M100.337 14.145C101.026 14.3324 102.211 14.5608 103.123 14.8327C104.576 15.2669 105.702 15.6431 106.805 16.3994C108.297 17.4224 109.061 19.2148 109.061 20.734C109.061 22.1318 108.498 23.6695 107.554 24.7703C107.101 25.2983 106.478 25.9437 104.917 26.6116C103.576 27.1871 102.399 27.393 100.604 27.393C98.8082 27.393 97.1179 27.1052 95.756 26.5364C94.3822 25.9635 93.2882 25.1478 92.5041 24.1117C91.8816 23.2894 91.4561 22.3377 91.2394 21.2844C91.1816 21.002 91.2591 20.7129 91.4521 20.4912C91.6386 20.2773 91.9118 20.1546 92.2007 20.1546H97.3018C97.7037 20.1546 98.0123 20.4278 98.2106 20.7657C98.4129 21.1115 98.5311 21.324 98.8633 21.5616C99.3059 21.8784 99.7866 22.0368 100.496 22.0368C100.907 22.0368 101.112 22.0038 101.298 21.9391C101.607 21.8335 101.75 21.7345 101.91 21.5629C102.057 21.4045 102.176 21.1155 102.176 20.8871C102.176 20.5677 102.043 20.3512 101.855 20.2219C101.508 19.983 101.036 19.8484 100.336 19.7098C99.6067 19.5646 98.2343 19.2927 97.4213 19.1264C95.7021 18.7753 94.0131 18.0599 93.0308 17.0383C92.0405 16.0074 91.5454 14.8789 91.5572 13.2646C91.5572 11.715 92.1206 10.5126 92.7326 9.64806C93.4392 8.64889 94.4938 7.8543 95.8164 7.33557C97.001 6.87096 98.3222 6.56738 100.351 6.56738C102.38 6.56738 103.933 7.14815 105.237 7.8345C106.338 8.41262 107.319 9.35504 107.857 10.1048C108.505 11.0063 108.858 11.8946 108.955 12.9729C108.98 13.2461 108.989 13.5946 108.798 13.8005C108.611 13.9998 108.401 14.0394 107.864 14.0394H103.805C102.954 14.0394 102.664 13.8124 102.529 13.4059C102.375 12.9452 102.244 12.6839 101.812 12.3209C101.507 12.0648 101.019 11.8457 100.516 11.8325C100.149 11.8233 99.847 11.8325 99.5397 11.9289C99.2547 12.016 99.0301 12.1493 98.8712 12.3248C98.7215 12.4898 98.5797 12.8647 98.7018 13.2158C98.9198 13.8467 99.7853 13.9972 100.338 14.1476L100.337 14.145Z" fill="#FF7900"/>
<path d="M159.678 4.1775C159.97 3.52282 159.985 2.9843 159.752 2.58964C159.576 2.29002 159.249 2.16727 158.609 2.0828C158.271 2.03792 157.978 2.01416 157.072 2.01416C156.36 2.01416 155.4 2.03528 154.759 2.07488C154.311 2.10259 154.021 2.15407 153.863 2.31114C153.555 2.61868 153.468 3.05689 153.514 3.6271C153.54 3.95971 153.539 4.19202 153.552 4.39793C153.577 4.78466 153.601 4.96021 153.518 5.46442C153.408 6.13625 152.396 6.66686 151.748 6.81601C149.742 7.2727 148.307 8.1214 147.357 9.40832C146.031 11.2087 145.722 13.0407 146.411 15.0087C146.653 15.6977 146.988 16.3022 147.435 16.8592C147.678 17.1628 147.779 17.5535 147.712 17.9284C147.651 18.2663 147.449 18.5289 147.175 18.715C146.468 19.1928 146.224 19.4991 146.123 20.3069C145.977 21.4684 146.595 21.9026 147.075 22.2234C147.316 22.3857 147.525 22.5256 147.587 22.7144C147.705 23.0774 147.57 23.4628 147.395 23.666C146.226 25.0348 145.798 26.6583 146.221 28.1207C146.649 29.6017 148.06 30.7368 149.662 31.3004C151.188 31.8376 153.167 31.9986 154.592 31.9986C155.69 31.9986 156.862 31.9393 158.116 31.7413C159.692 31.4918 161.335 30.7289 162.229 29.8036C163.295 28.7015 164.023 26.6583 163.593 24.9266C163.224 23.4377 162.183 22.3461 160.664 21.8525C160.119 21.6743 159.554 21.5555 158.988 21.4354C157.949 21.215 156.896 21.2189 155.878 21.2216C155.341 21.2229 154.789 21.2255 154.25 21.1938C153.602 21.1569 153.393 21.009 153.389 20.584C153.385 20.1524 153.592 20.0046 154.236 19.9782L154.662 19.961C155.546 19.9254 156.46 19.8884 157.361 19.7472C160.379 19.276 162.655 17.11 163.023 14.3593C163.463 11.0754 162.03 8.49362 159.104 7.25026C158.813 7.12751 158.697 7.03511 158.661 6.84637C158.605 6.54411 158.749 6.292 158.84 6.07554C159.077 5.50665 159.464 4.64871 159.675 4.17486L159.678 4.1775ZM155.359 13.0975V13.108C155.365 13.8036 155.354 14.3804 155.175 14.9308C155.059 15.2899 154.88 15.34 154.722 15.3413C154.418 15.3215 154.313 15.1354 154.271 14.9612C153.991 13.8076 153.986 12.6487 154.253 11.5175C154.352 11.1004 154.588 11.0899 154.678 11.0846C154.691 11.0846 154.704 11.0846 154.717 11.0846C154.894 11.0846 155.082 11.1493 155.198 11.5241C155.371 12.0864 155.374 12.6909 155.361 13.0975H155.359ZM155.388 25.5786C156.235 25.6248 156.572 25.9574 156.577 26.4009C156.582 26.9328 156.171 27.2694 155.568 27.3103C155.189 27.3367 154.696 27.342 154.317 27.3169C153.473 27.2615 153.233 26.7665 153.233 26.4471C153.233 26.0432 153.553 25.6287 154.246 25.5852C154.62 25.5614 155.014 25.5588 155.388 25.5786Z" fill="#FF7900"/>
<path d="M88.8152 21.0184C88.0601 20.0496 86.9503 19.6694 85.8996 19.6087C84.6506 19.5374 83.399 19.944 82.5309 21.087C82.0016 21.7826 81.8742 22.5297 81.8492 23.4114C81.8492 25.778 83.9585 26.6874 85.3414 26.7798C85.9351 26.8194 86.0441 26.7772 86.3448 26.7521C86.3448 26.7521 85.7748 27.1969 85.2902 27.5348C85.1116 27.6589 84.9395 27.8674 85.1195 28.1683C85.2351 28.3611 85.4872 28.7346 85.6094 28.9233C85.7341 29.116 86.0572 29.1398 86.333 28.8864C87.0869 28.1961 87.5255 27.7341 88.0876 27.0834C88.7181 26.3535 89.2224 25.6513 89.5074 24.3366C89.7044 23.4259 89.7175 22.1746 88.8152 21.0184Z" fill="black"/>
<path d="M172.759 23.8325C172.907 22.9138 172.666 21.6111 172.057 20.9194C171.277 20.0338 170.302 19.6008 168.926 19.6008C166.723 19.6008 165.034 21.0897 165.034 23.0352C165.034 24.9808 166.484 26.7944 168.687 26.7944C170.889 26.7944 172.451 25.753 172.758 23.8312L172.759 23.8325Z" fill="#FF7900"/>
<path d="M0 0H7.34031V26.7058H0V0ZM12.4243 14.6814C11.8976 14.0914 11.1819 13.7957 10.277 13.7957C9.66494 13.7957 9.1396 13.9502 8.69831 14.2564C8.25834 14.5639 7.92081 15.0497 7.68835 15.7136C7.45588 16.3775 7.34031 17.2381 7.34031 18.2953L6.60615 14.164V10.5488H7.92738L6.60615 14.164C6.60615 12.7873 6.90034 11.5704 7.4874 10.5118C8.07447 9.45454 8.88875 8.63092 9.92761 8.04092C10.9678 7.45091 12.1485 7.15525 13.4697 7.15525C14.9131 7.15525 16.1673 7.50503 17.2311 8.2059C18.295 8.90678 19.1145 9.90331 19.6897 11.1942C20.265 12.4851 20.5526 14.0162 20.5526 15.7862V26.7045H13.2123V17.114C13.2123 16.0818 12.9496 15.2701 12.423 14.6801L12.4243 14.6814Z" fill="black"/>
<path d="M26.2817 25.9677C24.6794 25.1322 23.437 23.9574 22.5557 22.4448C21.6745 20.9322 21.2345 19.1807 21.2345 17.1889C21.2345 15.1972 21.681 13.476 22.5741 11.9515C23.4672 10.427 24.7031 9.24699 26.2817 8.41017C27.8603 7.57466 29.6399 7.15625 31.6218 7.15625C33.6036 7.15625 35.3596 7.57466 36.8883 8.41017C38.417 9.24699 39.6043 10.4204 40.4488 11.933C41.2933 13.4456 41.7149 15.1972 41.7149 17.1889C41.7149 17.7789 41.6663 18.394 41.5678 19.0328H24.8672V15.0493H34.7778L34.5203 15.2341C34.5203 14.7669 34.4034 14.3485 34.171 13.9802C33.9385 13.6119 33.6076 13.3163 33.1807 13.0945C32.7526 12.8728 32.2325 12.7619 31.6205 12.7619C31.0084 12.7619 30.4647 12.8794 29.9867 13.1117C29.5099 13.3453 29.1304 13.6713 28.8493 14.0898C28.5682 14.5082 28.4277 15.0005 28.4277 15.5654V18.5167C28.4277 19.1068 28.5801 19.6413 28.8861 20.1218C29.1921 20.6009 29.6084 20.9705 30.1338 21.2279C30.6591 21.4866 31.2527 21.6146 31.9133 21.6146C32.574 21.6146 33.1308 21.4852 33.5839 21.2279C34.037 20.9692 34.3732 20.6075 34.5926 20.1402L41.0162 22.3168C40.2085 23.8664 39.0278 25.0714 37.4741 25.932C35.9204 26.7926 34.0672 27.2229 31.9133 27.2229C29.7594 27.2229 27.8814 26.8045 26.2791 25.969L26.2817 25.9677Z" fill="black"/>
<path d="M42.3975 0H49.7378V26.7058H42.3975V0Z" fill="black"/>
<path d="M51.4462 0H58.7865V26.7058H51.4462V0Z" fill="black"/>
<path d="M64.4973 25.9127C62.9317 25.0402 61.7011 23.8351 60.8081 22.2974C59.915 20.761 59.4684 19.0584 59.4684 17.188C59.4684 15.3177 59.915 13.586 60.8081 12.0602C61.7011 10.5357 62.9304 9.33719 64.4973 8.46341C66.0628 7.59094 67.8003 7.15405 69.7086 7.15405C71.6169 7.15405 73.3847 7.59094 74.9384 8.46341C76.4921 9.33719 77.7161 10.5357 78.6092 12.0602C79.5023 13.5847 79.9488 15.294 79.9488 17.188C79.9488 19.0821 79.5023 20.7597 78.6092 22.2974C77.7161 23.8351 76.4921 25.0389 74.9384 25.9127C73.3847 26.7851 71.6406 27.222 69.7086 27.222C67.7767 27.222 66.0628 26.7851 64.4973 25.9127ZM71.4344 20.1407C71.9479 19.845 72.3458 19.4398 72.6269 18.9237C72.908 18.4076 73.0485 17.8295 73.0485 17.1907C73.0485 16.5518 72.908 15.9368 72.6269 15.4207C72.3458 14.9046 71.9479 14.5047 71.4344 14.2222C70.9209 13.9397 70.3456 13.7985 69.71 13.7985C69.0743 13.7985 68.5043 13.9397 68.0026 14.2222C67.5009 14.5047 67.1029 14.9046 66.8101 15.4207C66.5159 15.9368 66.3701 16.5268 66.3701 17.1907C66.3701 17.8546 66.5172 18.4076 66.8101 18.9237C67.1029 19.4398 67.5009 19.8463 68.0026 20.1407C68.5043 20.4363 69.073 20.5829 69.71 20.5829C70.3469 20.5829 70.9209 20.435 71.4344 20.1407Z" fill="black"/>
</svg>
