<svg width="14" height="14" viewBox="0 0 14 14" fill="none" xmlns="http://www.w3.org/2000/svg">
<g clip-path="url(#clip0_2009_53183)">
<path d="M7.875 12.25C8.91335 12.25 9.92839 11.9421 10.7917 11.3652C11.6551 10.7883 12.328 9.9684 12.7254 9.00909C13.1227 8.04978 13.2267 6.99418 13.0241 5.97578C12.8216 4.95738 12.3215 4.02192 11.5873 3.28769C10.8531 2.55347 9.91762 2.05345 8.89922 1.85088C7.88082 1.64831 6.82522 1.75227 5.86591 2.14963C4.9066 2.54699 4.08666 3.2199 3.50978 4.08326C2.93291 4.94662 2.625 5.96165 2.625 7V9.7125L1.05 8.1375L0.4375 8.75L3.0625 11.375L5.6875 8.75L5.075 8.1375L3.5 9.7125V7C3.5 6.13471 3.75659 5.28885 4.23732 4.56938C4.71805 3.84992 5.40133 3.28916 6.20076 2.95803C7.00019 2.6269 7.87985 2.54026 8.72852 2.70907C9.57719 2.87788 10.3567 3.29456 10.9686 3.90641C11.5804 4.51827 11.9971 5.29782 12.1659 6.14648C12.3347 6.99515 12.2481 7.87482 11.917 8.67424C11.5858 9.47367 11.0251 10.157 10.3056 10.6377C9.58615 11.1184 8.74029 11.375 7.875 11.375V12.25Z" fill="black"/>
</g>
<defs>
<clipPath id="clip0_2009_53183">
<rect width="14" height="14" fill="white"/>
</clipPath>
</defs>
</svg>
