<svg width="14" height="14" viewBox="0 0 14 14" fill="none" xmlns="http://www.w3.org/2000/svg">
<g clip-path="url(#clip0_2243_2676)">
<path d="M12.6874 12.0687L9.38331 8.76465C10.1773 7.81149 10.5732 6.58894 10.4887 5.35132C10.4042 4.1137 9.84581 2.9563 8.9297 2.11988C8.01359 1.28347 6.81029 0.832438 5.57011 0.86062C4.32993 0.888802 3.14836 1.39403 2.27119 2.27119C1.39403 3.14836 0.888802 4.32993 0.86062 5.57011C0.832438 6.81029 1.28347 8.01359 2.11988 8.9297C2.9563 9.84581 4.1137 10.4042 5.35132 10.4887C6.58894 10.5732 7.81149 10.1773 8.76465 9.38331L12.0687 12.6874L12.6874 12.0687ZM1.74986 5.68736C1.74986 4.90859 1.98079 4.14732 2.41345 3.4998C2.84611 2.85228 3.46106 2.3476 4.18054 2.04958C4.90003 1.75156 5.69173 1.67359 6.45553 1.82552C7.21933 1.97745 7.92092 2.35246 8.47159 2.90313C9.02226 3.45379 9.39727 4.15539 9.5492 4.91919C9.70113 5.68299 9.62315 6.47469 9.32513 7.19417C9.02711 7.91366 8.52243 8.52861 7.87492 8.96127C7.2274 9.39393 6.46612 9.62486 5.68736 9.62486C4.64342 9.6237 3.64258 9.20849 2.9044 8.47031C2.16623 7.73214 1.75102 6.73129 1.74986 5.68736Z" fill="white"/>
</g>
<defs>
<clipPath id="clip0_2243_2676">
<rect width="14" height="14" fill="white"/>
</clipPath>
</defs>
</svg>
