<svg width="14" height="14" viewBox="0 0 14 14" fill="none" xmlns="http://www.w3.org/2000/svg">
<g clip-path="url(#clip0_1920_39702)">
<path d="M12.6875 12.0689L9.38345 8.76489C10.1774 7.81174 10.5733 6.58919 10.4888 5.35157C10.4043 4.11395 9.84594 2.95654 8.92984 2.12013C8.01373 1.28371 6.81043 0.832683 5.57025 0.860865C4.33007 0.889047 3.1485 1.39427 2.27133 2.27144C1.39416 3.1486 0.88894 4.33018 0.860758 5.57036C0.832576 6.81054 1.28361 8.01384 2.12002 8.92994C2.95644 9.84605 4.11384 10.4044 5.35146 10.4889C6.58908 10.5734 7.81163 10.1775 8.76478 9.38356L12.0688 12.6876L12.6875 12.0689ZM1.75 5.6876C1.75 4.90884 1.98093 4.14756 2.41358 3.50005C2.84624 2.85253 3.4612 2.34785 4.18068 2.04983C4.90016 1.75181 5.69186 1.67383 6.45566 1.82576C7.21946 1.97769 7.92106 2.3527 8.47173 2.90337C9.0224 3.45404 9.39741 4.15563 9.54934 4.91943C9.70127 5.68323 9.62329 6.47493 9.32527 7.19442C9.02725 7.9139 8.52257 8.52886 7.87505 8.96151C7.22753 9.39417 6.46626 9.6251 5.6875 9.6251C4.64356 9.62394 3.64272 9.20873 2.90454 8.47056C2.16637 7.73238 1.75115 6.73154 1.75 5.6876Z" fill="#161616"/>
</g>
<defs>
<clipPath id="clip0_1920_39702">
<rect width="14" height="14" fill="white"/>
</clipPath>
</defs>
</svg>
