<svg width="14" height="14" viewBox="0 0 14 14" fill="none" xmlns="http://www.w3.org/2000/svg">
<g clip-path="url(#clip0_1936_41473)">
<path d="M13.125 3.5H11.3313C11.1125 2.49375 10.2375 1.75 9.1875 1.75C8.1375 1.75 7.2625 2.49375 7.04375 3.5H0.875V4.375H7.04375C7.2625 5.38125 8.1375 6.125 9.1875 6.125C10.2375 6.125 11.1125 5.38125 11.3313 4.375H13.125V3.5ZM9.1875 5.25C8.44375 5.25 7.875 4.68125 7.875 3.9375C7.875 3.19375 8.44375 2.625 9.1875 2.625C9.93125 2.625 10.5 3.19375 10.5 3.9375C10.5 4.68125 9.93125 5.25 9.1875 5.25Z" fill="#161616"/>
<path d="M0.875 10.5H2.66875C2.8875 11.5062 3.7625 12.25 4.8125 12.25C5.8625 12.25 6.7375 11.5062 6.95625 10.5H13.125V9.625H6.95625C6.7375 8.61875 5.8625 7.875 4.8125 7.875C3.7625 7.875 2.8875 8.61875 2.66875 9.625H0.875V10.5ZM4.8125 8.75C5.55625 8.75 6.125 9.31875 6.125 10.0625C6.125 10.8063 5.55625 11.375 4.8125 11.375C4.06875 11.375 3.5 10.8063 3.5 10.0625C3.5 9.31875 4.06875 8.75 4.8125 8.75Z" fill="#161616"/>
</g>
<defs>
<clipPath id="clip0_1936_41473">
<rect width="14" height="14" fill="white"/>
</clipPath>
</defs>
</svg>
