<svg width="14" height="14" viewBox="0 0 14 14" fill="none" xmlns="http://www.w3.org/2000/svg">
<g clip-path="url(#clip0_1920_39988)">
<path d="M7 2.8525L8.2075 5.29375L8.40875 5.73125L8.84625 5.79688L11.5412 6.18625L9.625 8.0675L9.29687 8.38688L9.37562 8.82438L9.835 11.5062L7.42437 10.2419L7 10.0625L6.59312 10.2769L4.1825 11.5238L4.62 8.84187L4.69875 8.40437L4.375 8.0675L2.44125 6.16438L5.13625 5.775L5.57375 5.70937L5.775 5.27187L7 2.8525ZM7 0.875L5.00937 4.90875L0.559999 5.55187L3.78 8.69313L3.01875 13.125L7 11.0337L10.9812 13.125L10.22 8.69313L13.44 5.55625L8.99062 4.90875L7 0.875Z" fill="#161616"/>
</g>
<defs>
<clipPath id="clip0_1920_39988">
<rect width="14" height="14" fill="white"/>
</clipPath>
</defs>
</svg>
