<svg width="14" height="14" viewBox="0 0 14 14" fill="none" xmlns="http://www.w3.org/2000/svg">
<g clip-path="url(#clip0_1920_39658)">
<path d="M7 0.875C5.78859 0.875 4.60439 1.23423 3.59714 1.90725C2.58988 2.58027 1.80483 3.53687 1.34124 4.65606C0.877654 5.77526 0.756358 7.0068 0.992693 8.19493C1.22903 9.38306 1.81238 10.4744 2.66897 11.331C3.52557 12.1876 4.61694 12.771 5.80508 13.0073C6.99321 13.2436 8.22474 13.1224 9.34394 12.6588C10.4631 12.1952 11.4197 11.4101 12.0928 10.4029C12.7658 9.39562 13.125 8.21141 13.125 7C13.125 5.37555 12.4797 3.81763 11.331 2.66897C10.1824 1.52031 8.62445 0.875 7 0.875ZM12.25 6.5625H9.625C9.57393 4.95123 9.1565 3.37275 8.40438 1.94688C9.44063 2.23033 10.365 2.82487 11.0527 3.65025C11.7403 4.47563 12.1583 5.49211 12.25 6.5625ZM7 12.25C6.90241 12.2566 6.80448 12.2566 6.70688 12.25C5.8005 10.8046 5.29748 9.14293 5.25 7.4375H8.75C8.70648 9.14171 8.20801 10.8033 7.30625 12.25C7.2043 12.2572 7.10196 12.2572 7 12.25ZM5.25 6.5625C5.29353 4.8583 5.792 3.19674 6.69375 1.75C6.88856 1.72811 7.0852 1.72811 7.28 1.75C8.191 3.1941 8.69859 4.85584 8.75 6.5625H5.25ZM5.5825 1.94688C4.83495 3.37384 4.42201 4.95226 4.375 6.5625H1.75C1.84175 5.49211 2.25966 4.47563 2.94735 3.65025C3.63503 2.82487 4.55938 2.23033 5.59563 1.94688H5.5825ZM1.77188 7.4375H4.39688C4.44254 9.0474 4.85397 10.6258 5.6 12.0531C4.56701 11.7666 3.64647 11.1708 2.96212 10.3456C2.27777 9.52051 1.86242 8.50566 1.77188 7.4375ZM8.40438 12.0531C9.1565 10.6272 9.57393 9.04878 9.625 7.4375H12.25C12.1583 8.50789 11.7403 9.52438 11.0527 10.3498C10.365 11.1751 9.44063 11.7697 8.40438 12.0531Z" fill="#161616"/>
</g>
<defs>
<clipPath id="clip0_1920_39658">
<rect width="14" height="14" fill="white"/>
</clipPath>
</defs>
</svg>
